<?xml version="1.0" encoding="utf-8" ?><svg xmlns="http://www.w3.org/2000/svg" xmlns:xlink="http://www.w3.org/1999/xlink" width="512" height="168" viewBox="0 0 512 168"><path fill="#213669" transform="scale(0.653061 0.65625)" d="M495.795 0L555.265 0L555.39 0.0314871C558.454 0.775189 571.107 0.956109 574.969 1.11632C584.426 1.56828 593.873 2.203 603.305 3.02012C646.077 6.89132 755.831 21.8447 779.681 60.7921C781.643 63.9954 782.924 67.4057 784 70.9879L784 81.0554C781.462 89.8214 779.071 93.5921 773.363 100.587C752.443 126.226 725.239 145.813 696.538 161.885C693.589 163.536 690.447 165.188 687.372 166.603C690.6 162.161 693.881 157.73 696.631 152.971C708.813 131.894 708.528 93.2789 687.055 77.7785C680.804 73.228 672.991 71.3658 665.358 72.6069C653.942 74.501 651.197 80.3205 643.45 84.5859C643.295 78.8625 643.942 73.4185 644.392 67.7197L647.067 36.2376C640.57 35.1909 633.953 35.1109 627.433 36.0001L620.036 128.385C618.822 143.503 616.875 161.392 616.273 176.282C620.828 176.118 630.851 175.892 635.214 176.329C635.671 171.865 636.232 167.413 636.898 162.975C644.889 172.409 651.223 176.971 663.736 178.226C628.03 195.28 592.798 206.044 554.66 215.816C487.272 232.469 418.665 243.73 349.488 249.491C328.486 251.304 307.465 252.912 286.431 254.314C281.163 254.623 258.4 254.875 254.813 256L201.123 256C198.187 255.29 191.331 255.058 187.863 254.817C180.76 254.352 173.668 253.733 166.592 252.96C121.276 247.926 70.2145 242.161 29.4809 219.732C20.2124 214.629 8.71855 205.578 4.07898 195.952C2.12168 191.891 1.1634 188.319 0 183.945L0 173.923C0.850624 170.298 2.51443 163.788 4.11309 160.381C17.731 131.365 50.4658 110.419 77.7011 95.1198C83.6092 91.801 91.0347 87.9539 96.9776 85.5347C94.7457 89.6751 92.0869 93.4185 89.8764 97.807C83.0012 111.76 80.4175 126.875 83.8395 142.188C93.6438 186.061 139.266 194.779 163.417 156.01C158.628 151.553 151.548 144.667 146.504 140.84C138.267 155.306 119.991 160.544 108.806 145.127C96.0926 127.602 107.364 92.3988 132.427 95.7988C138.758 96.6576 144.074 102.184 147.601 107.548C154.173 103.208 160.671 99.2089 167.234 94.7365C159.366 79.7023 152.012 74.7097 136.552 68.6676C153.934 61.9823 171.906 56.9481 190.231 53.6317C206.261 50.8607 224.585 49.4224 240.904 47.4837C274.351 43.5104 308.108 40.5746 341.728 44.5103C357.594 46.4277 379.575 50.339 390.299 63.4577C401.639 77.3303 390.457 89.8549 384.097 102.117C381.076 107.94 379.614 115.844 378.576 122.288C375.096 143.89 384.734 174.426 409.238 178.409C420.509 180.221 430.432 172.991 439.045 166.197L439.11 176.246C443.657 175.943 453.203 176.08 457.781 176.326C458.884 170.617 459.477 160.141 459.982 154.023C461.096 140.103 462.284 126.188 463.548 112.28C464.709 100.64 467.777 90.7523 469.015 79.3842C470.668 64.1987 468.175 48.2337 458.266 36.1114C445.975 21.0762 425.843 14.7493 407.146 12.8356C400.977 12.2041 394.994 12.3681 388.902 11.7518C394.421 9.77783 404.423 8.48978 410.502 7.60997C431.027 4.74687 451.655 2.67816 472.34 1.4085C477.187 1.09512 492.125 0.856894 495.795 0ZM304.977 83.7368L305.194 75.4281L286.419 75.4413C283.834 100.491 281.603 125.577 279.726 150.69C278.01 170.726 276.654 190.792 275.658 210.877C281.747 210.823 287.836 210.813 293.924 210.847C294.424 202.365 295.314 193.676 296.066 185.193C296.659 178.728 297.388 171.987 297.649 165.521C301.212 168.679 304.354 171.608 308.512 174.035C324.226 183.209 341.74 176.518 352.971 163.781C372.235 141.935 374.694 101.817 352.082 81.3334C345.193 75.0932 336.097 72.228 326.821 73.1902C317.455 74.8291 312.302 77.8347 304.977 83.7368ZM584.328 89.9362C577.945 82.1086 571.054 74.4262 560.169 73.5744C533.806 71.5114 517.34 100.544 515.231 123.345C513.475 142.34 517.788 163.098 534.642 174.308C551.642 183.555 564.263 176.46 577.752 166.031C577.201 169.735 577.073 173.304 576.783 177.026C583.823 177.409 591.247 176.964 597.865 177.384C598.337 169.684 599.008 161.815 599.727 154.124C602.241 127.212 603.946 100.108 606.617 73.2228L586.486 73.1599C585.847 78.762 585.127 84.3546 584.328 89.9362ZM488.532 35.5973L476.548 175.971C483.863 176.57 489.808 176.856 497.156 175.9C498.648 150.904 501.827 122.376 504.051 97.1697L507.541 57.4872C508.137 50.712 508.663 42.2891 509.573 35.6683C502.168 35.4633 495.827 35.6093 488.532 35.5973ZM240.13 144.805C234.515 149.713 227.679 154.973 219.841 154.339C207.284 153.323 200.255 141.678 200.185 130.136C222.061 129.984 245.841 129.663 267.616 130.105C268.939 112.099 267.014 97.2715 254.925 83.0872C247.548 74.4313 235.682 68.573 224.182 69.4281C209.679 70.5024 200.032 77.375 191.107 88.3914C172.463 111.403 172.634 151.75 196.047 171.785C203.422 178.214 213.105 181.353 222.852 180.473C235.753 179.428 245.39 173.127 253.515 163.521C255.013 161.76 256.448 159.945 257.818 158.081L252.583 154.104C248.514 151.142 243.984 147.981 240.13 144.805Z"/><path fill="#213669" transform="scale(0.653061 0.65625)" d="M324.957 93.8871C328.251 93.596 333.351 94.9076 335.916 96.9146C355.36 112.127 347.751 150.223 323.997 155.79C292.492 156.984 294.012 97.9767 324.957 93.8871Z"/><path fill="#213669" transform="scale(0.653061 0.65625)" d="M557.437 93.8448C587.23 92.4004 587.379 149.877 557.064 155.739C526.655 157.89 526.129 99.3956 557.437 93.8448Z"/><path fill="#213669" transform="scale(0.653061 0.65625)" d="M221.754 95.7325C234.847 94.8202 241.728 101.653 245.167 113.698C240.09 113.362 232.112 113.59 226.816 113.589C218.692 113.533 210.566 113.556 202.442 113.658C206.078 103.719 211.078 98.167 221.754 95.7325Z"/><path fill="#213669" transform="scale(0.653061 0.65625)" d="M419.135 94.1985C449.864 90.6597 451.331 148.038 421.016 155.502C416.676 156.264 412.207 155.386 408.478 153.039C389.566 141.152 395.181 99.5046 419.135 94.1985Z"/><path fill="#213669" transform="scale(0.653061 0.65625)" d="M661.338 94.2326C692.197 91.1374 692.898 147.12 663.463 155.65C632.552 158.834 632.7 101.901 661.338 94.2326Z"/></svg>